<svg xmlns="http://www.w3.org/2000/svg" viewBox="0 0 108.98 77.29"><title>2players</title><g id="Layer_2" data-name="Layer 2"><g id="Layer_3" data-name="Layer 3"><path d="M94.22,43.28c4.62,4.31,6.63,10.78,7.38,17H75.93A50,50,0,0,0,71,47.63a31.49,31.49,0,0,0,6.24.62,31.19,31.19,0,0,0,16.94-5M94,34.57a24.33,24.33,0,0,1-33.49,0,24.67,24.67,0,0,0-6.28,4.88C63,45.17,68.38,54.66,70.14,67.3H109c0-.12,0-.23,0-.36,0-14.19-4.18-26.47-15-32.37Z"/><path d="M77.29,7a9.94,9.94,0,1,1-9.93,9.93A9.94,9.94,0,0,1,77.29,7m0-7A16.94,16.94,0,1,0,94.22,16.93,16.93,16.93,0,0,0,77.29,0Z"/><path d="M48.64,53.26c3.65,3.39,6,8.47,7.12,15.16q.15.92.26,1.87H7.38c.75-6.24,2.76-12.71,7.38-17q.63.4,1.28.78c.6.35,1.21.67,1.83,1l.81.39,1,.44.93.37,1,.37,1,.31c.65.2,1.29.37,1.92.51.35.09.7.16,1.06.23l.9.17c.37.07.75.12,1.12.17l1,.11.93.08.93,0h2.46l.93,0,.92-.08,1-.11c.37,0,.75-.1,1.12-.17l.9-.16c.36-.07.71-.14,1.06-.23.62-.14,1.27-.31,1.92-.51l1-.31,1-.37.91-.36.72-.31.55-.25L45.5,55l.67-.34.53-.28.61-.34,0,0,0,0c.45-.26.87-.52,1.28-.79m-.2-8.7c-.22.21-.45.42-.68.62-.4.36-.81.69-1.23,1l-.64.48-.52.36-.31.2c-.4.26-.79.51-1.21.75l-.48.27-.43.23-.54.28L42,49l-.37.17-.62.26-.67.26-.84.3-.73.23c-.5.16-1,.3-1.53.41l-.78.17-.78.14-.79.12-.79.09-.67.06-.78,0H30.75l-.78,0-.67-.06L28.51,51l-.79-.12-.78-.14-.78-.17c-.52-.11-1-.25-1.53-.41L23.91,50l-.84-.3-.67-.26L21.6,49l-.63-.3q-.72-.35-1.42-.76a24,24,0,0,1-2.68-1.8A22.86,22.86,0,0,1,15,44.56C4.18,50.46,0,62.74,0,76.93c0,.12,0,.23,0,.36H63.39c0-.12,0-.23,0-.36a60.6,60.6,0,0,0-.73-9.63C61.17,58,57.25,50.18,50,45.51c-.51-.33-1-.65-1.59-1Z"/><path d="M31.7,17a9.94,9.94,0,1,1-9.93,9.93A9.94,9.94,0,0,1,31.7,17m0-7A16.94,16.94,0,1,0,48.63,26.92,16.93,16.93,0,0,0,31.7,10Z"/></g></g></svg>