<svg xmlns="http://www.w3.org/2000/svg" viewBox="0 0 154.57 77.29"><title>3players</title><g id="Layer_2" data-name="Layer 2"><g id="Layer_3" data-name="Layer 3"><path d="M139.81,43.28c4.62,4.31,6.63,10.78,7.38,17H121.52a50,50,0,0,0-4.88-12.67,31.48,31.48,0,0,0,6.24.62,31.2,31.2,0,0,0,16.94-5m-.19-8.71a24.33,24.33,0,0,1-33.48,0,24.66,24.66,0,0,0-6.28,4.88c8.72,5.72,14.11,15.21,15.87,27.84h38.84c0-.12,0-.23,0-.36,0-14.19-4.18-26.47-15-32.37Z"/><path d="M122.88,7a9.94,9.94,0,1,1-9.93,9.93A9.94,9.94,0,0,1,122.88,7m0-7a16.94,16.94,0,1,0,16.93,16.93A16.93,16.93,0,0,0,122.88,0Z"/><path d="M14.76,43.28a31.2,31.2,0,0,0,16.94,5,31.48,31.48,0,0,0,6.24-.62A50,50,0,0,0,33.06,60.3H7.38c.75-6.23,2.76-12.7,7.38-17m33.68-8.71a24.33,24.33,0,0,1-33.48,0C4.18,40.47,0,52.75,0,66.94c0,.12,0,.23,0,.36H38.85C40.61,54.66,46,45.17,54.72,39.46a24.66,24.66,0,0,0-6.28-4.88Z"/><path d="M31.7,7a9.94,9.94,0,1,1-9.93,9.93A9.94,9.94,0,0,1,31.7,7m0-7A16.94,16.94,0,1,0,48.63,16.93,16.93,16.93,0,0,0,31.7,0Z"/><path d="M94.23,53.26c3.65,3.39,6,8.47,7.12,15.16q.15.92.26,1.87H53q.11-1,.26-1.88c1.07-6.67,3.46-11.75,7.12-15.15.41.27.83.53,1.28.78l0,0,0,0,.58.33.56.29.67.34.55.26.55.25.72.31.91.36,1,.37,1,.31c.65.2,1.29.37,1.92.51.35.09.7.16,1.06.23l.9.17c.37.07.75.12,1.12.17l1,.11.93.08.93,0h2.46l.93,0,.92-.08,1-.11c.37,0,.75-.1,1.12-.17l.9-.17c.36-.07.71-.14,1.06-.23.62-.14,1.27-.31,1.92-.51l1-.31,1-.37.91-.36.72-.31.55-.25.55-.26.67-.34.53-.28.61-.34,0,0,0,0c.45-.26.87-.52,1.28-.79m-.2-8.7c-.22.21-.45.42-.68.62-.4.36-.81.69-1.23,1l-.64.48L91,47l-.31.2c-.4.26-.79.51-1.21.75l-.48.27-.43.23-.54.28-.41.2-.37.17-.62.26-.67.26-.84.3-.73.23c-.5.16-1,.3-1.53.41l-.78.17-.78.14-.79.12-.79.09-.67.06-.78,0H76.34l-.78,0-.67-.06L74.1,51l-.79-.12-.78-.14-.78-.17c-.52-.11-1-.25-1.53-.41L69.5,50l-.84-.3L68,49.39l-.62-.26L67,49l-.41-.2L66,48.48l-.43-.23L65.13,48c-.41-.24-.81-.49-1.21-.75l-.31-.2-.52-.36-.64-.48c-.42-.32-.83-.66-1.23-1-.23-.2-.46-.4-.68-.62-.55.3-1.08.62-1.59,1C51.73,50.18,47.81,58,46.32,67.3a60.6,60.6,0,0,0-.73,9.63c0,.12,0,.23,0,.36H109c0-.12,0-.23,0-.36a60.6,60.6,0,0,0-.73-9.63c-1.5-9.32-5.41-17.12-12.64-21.79-.51-.33-1-.65-1.59-1Z"/><path d="M77.29,17a9.94,9.94,0,1,1-9.93,9.93A9.94,9.94,0,0,1,77.29,17m0-7A16.94,16.94,0,1,0,94.22,26.92,16.93,16.93,0,0,0,77.29,10Z"/></g></g></svg>