<svg xmlns="http://www.w3.org/2000/svg" viewBox="0 0 154.57 108.55"><title>4players</title><g id="Layer_2" data-name="Layer 2"><g id="Layer_3" data-name="Layer 3"><path d="M139.81,74.54c4.62,4.31,6.63,10.78,7.38,17H121.52a50,50,0,0,0-4.88-12.67,31.42,31.42,0,0,0,23.17-4.35m-.19-8.71a24.33,24.33,0,0,1-33.48,0,24.66,24.66,0,0,0-6.28,4.88c8.72,5.72,14.11,15.21,15.87,27.84h38.84c0-.12,0-.23,0-.36,0-14.19-4.18-26.47-15-32.37Z"/><path d="M122.88,38.26a9.94,9.94,0,1,1-9.93,9.93,9.94,9.94,0,0,1,9.93-9.93m0-7A16.94,16.94,0,1,0,139.81,48.2a16.93,16.93,0,0,0-16.93-16.93Z"/><path d="M14.76,74.54l.25.16c.33.21.67.41,1,.62.59.34,1.2.67,1.81,1l.84.4.23.1.72.31.93.37.26.1.64.23,0,0,.18.06.14,0L22,78h0a31.51,31.51,0,0,0,4.49,1.09c.37.07.74.12,1.11.17l.95.11.36,0h0l.53,0,.3,0,.64,0h2.47l.64,0,.3,0,.53,0h0l.35,0,.95-.11c.37,0,.74-.1,1.11-.17l1.09-.2a50.13,50.13,0,0,0-4.89,12.68H7.38c.75-6.24,2.76-12.71,7.39-17m33.68-8.71q-.81.78-1.7,1.47h0l-.21.16-.64.48-.52.36-.37.25-.21.14-.37.23-.49.29-.08,0-.35.19-.1.06-.47.25q-.66.35-1.34.65l-.6.26-.67.26-.1,0-.69.25-.06,0a24.46,24.46,0,0,1-3.82,1l-.79.12-.78.09h0l-.76.06h-.14l-.49,0h-2l-.49,0h-.14l-.76-.06h0l-.78-.09-.79-.12a24.46,24.46,0,0,1-3.82-1l-.06,0L23.16,71l-.1,0-.67-.26-.68-.29-.08,0L21,70q-.72-.35-1.42-.76l-.77-.46-.53-.34L18,68.31c-.4-.27-.78-.55-1.16-.84A22.94,22.94,0,0,1,15,65.83C4.18,71.73,0,84,0,98.21c0,.12,0,.23,0,.36H38.85c0-.15,0-.3.07-.44v0c1.67-11.37,6.32-20.15,13.72-25.88l.75-.57c.22-.17.46-.33.69-.49l0,0,.61-.41a24.29,24.29,0,0,0-3.93-3.42,23.83,23.83,0,0,0-2.35-1.47Z"/><path d="M31.7,38.26a9.94,9.94,0,0,1,9.93,9.93v.27a9.77,9.77,0,0,1-1.26,4.59,10.09,10.09,0,0,1-1.82,2.34c-.2.19-.41.37-.63.55l-.1.08-.1.07-.07.05-.17.12-.07.05-.21.15-.54.34h0l-.13.07,0,0,0,0-.08,0-.18.1-.17.08H36l-.4.18-.17.07-.11,0-.09,0-.17.06-.15.05-.07,0,0,0h-.06l-.06,0-.15,0-.14,0h-.05l-.12,0-.06,0h-.07l-.07,0a9.69,9.69,0,0,1-1.61.24H31a9.69,9.69,0,0,1-1.61-.24H29.3l-.1,0-.12,0H29l-.14,0-.15,0-.07,0h-.12l-.1,0L28,57.43H28l-.21-.09-.36-.16h0l-.17-.09L27,57l-.09,0,0,0h0l-.13-.07-.54-.34L26,56.32l-.08-.06-.17-.12-.06,0L25.6,56l-.13-.1c-.22-.17-.43-.36-.62-.54A9.93,9.93,0,0,1,31.7,38.26m0-7A16.93,16.93,0,0,0,20,60.47q.5.48,1,.91l.34.27.49.36.4.27c.3.2.61.4.93.58l.37.21.35.19.36.18.73.33.37.15.75.28.38.13.33.1.43.13.47.12a16.65,16.65,0,0,0,2.77.42l.52,0h1.25l.52,0a16.65,16.65,0,0,0,2.77-.42l.47-.12.43-.13.33-.1.38-.13c.25-.08.5-.17.75-.28l.37-.15.73-.33.36-.18.35-.19.37-.21c.32-.18.63-.38.93-.58l.4-.27.49-.36.34-.27q.54-.44,1-.91a17.13,17.13,0,0,0,3.1-4,16.83,16.83,0,0,0,2.17-7.85c0-.15,0-.3,0-.45A16.93,16.93,0,0,0,31.7,31.26Z"/><path d="M67.83,72.24l.2.13-.11-.07-.1-.06Z"/><path d="M69.3,73.12l.37.19-.09-.05-.12-.07-.16-.07Z"/><path d="M70,73.48l.23.11-.11-.05L70,73.48Z"/><path d="M71.87,74.23l.72.22-.17-.05-.19-.06-.36-.11Zm.72.22.07,0-.07,0Z"/><path d="M73.19,74.62l.38.09-.11,0-.12,0-.15,0Z"/><path d="M73.86,74.77l.67.12-.54-.1-.13,0Z"/><path d="M80.71,74.77l-.13,0-.54.1.67-.12Z"/><path d="M81.38,74.62l-.15,0-.12,0-.11,0,.38-.09Z"/><path d="M82.65,74.25l-.08,0,.08,0Zm-.08,0-.22.07-.19.06-.24.07.66-.2Z"/><path d="M83.88,73.79l-.1,0-.11,0,.21-.09Z"/><path d="M84.57,73.47l-.12.05-.13.07.26-.12Z"/><path d="M84.81,73.36l-.09,0-.07,0,.16-.08Z"/><path d="M86.73,72.24l-.1.06-.1.07.2-.13Z"/><path d="M94.23,84.52c3.65,3.39,6,8.47,7.12,15.16q.15.92.26,1.87H53q.11-1,.26-1.88C54.3,93,56.68,87.92,60.35,84.52l.43.27.79.48,1.66,1h.17l0,0,.49.24.11.05c.45.21.86.39,1.24.55l.86.34.25.09.63.22.06,0,.17.06,1,.31c.65.2,1.3.37,1.92.51.34.08.7.16,1.05.23l.92.17c.37.07.75.12,1.12.17l1,.11.27,0,.09,0,.68,0,.81,0h2.48l.81,0,.68,0,.09,0,.26,0,1-.11c.37,0,.75-.1,1.12-.17l.92-.17c.35-.07.71-.14,1.05-.23.62-.14,1.26-.31,1.92-.51l.95-.3.26-.09.62-.22.3-.11.81-.32.71-.3.65-.3c.78-.37,1.56-.77,2.33-1.21.45-.26.87-.52,1.28-.79m-.2-8.7c-.22.21-.45.42-.68.62-.4.36-.81.69-1.23,1l-.64.48-.52.36-.31.2c-.4.26-.79.51-1.21.75q-.93.53-1.89,1l-.35.16-.62.26-.67.26-.1,0-.68.24-.07,0-.73.23c-.5.16-1,.3-1.53.41L82,82l-.78.14-.79.12-.79.09-.67.06H79l-.73,0H76.34l-.73,0h-.05l-.67-.06-.79-.09-.79-.12L72.54,82l-.78-.17c-.52-.11-1-.25-1.53-.41l-.73-.23-.07,0L68.75,81l-.1,0L68,80.65c-.33-.13-.66-.28-1-.43L66.54,80,66,79.74l-.21-.11-.22-.12-.48-.27h0l-.69-.42c-.46-.29-.91-.59-1.34-.9l-.64-.48L61.84,77h0l-.6-.52h0c-.23-.2-.46-.4-.68-.62-.55.3-1.08.62-1.59,1-7.22,4.67-11.14,12.47-12.64,21.79a60.6,60.6,0,0,0-.73,9.63c0,.12,0,.23,0,.36H109c0-.12,0-.23,0-.36a60.6,60.6,0,0,0-.73-9.63c-1.5-9.32-5.41-17.12-12.64-21.79-.51-.33-1-.65-1.59-1Z"/><path d="M77.29,48.25a9.94,9.94,0,0,1,8.38,15.28,10.13,10.13,0,0,1-1.61,1.93,10.48,10.48,0,0,1-1.21,1l-.06,0-.14.09-.4.25-.16.09h0l-.05,0-.25.13-.11,0-.12.07-.09,0h0l-.24.11-.06,0-.18.08-.06,0-.09,0,0,0h-.07l-.15.05-.08,0h-.06l-.19.06-.06,0-.06,0h0l-.12,0-.14,0-.12,0h-.06l-.21,0-.07,0-.07,0L79,68h0l-.09,0-.12,0h-.09l-.14,0-.15,0H76.57l-.19,0h-.16l-.15,0-.14,0h-.1l-.12,0-.08,0h0l-.24,0-.07,0-.07,0-.21,0h-.05l-.12,0-.14,0-.12,0h0l-.06,0-.06,0-.21-.06-.11,0-.07,0-.08,0-.08,0-.05,0-.09,0-.06,0-.19-.08-.07,0h0l-.12-.05L73,67.15h0l-.3-.15h0l0,0-.08,0-.22-.12-.42-.26-.22-.15,0,0,0,0-.08-.05,0,0a10.75,10.75,0,0,1-1-.82,10.18,10.18,0,0,1-1.63-1.94,9.94,9.94,0,0,1,8.38-15.28m0-7A16.94,16.94,0,0,0,63,67.3a17.17,17.17,0,0,0,2.74,3.29A17.76,17.76,0,0,0,67.45,72l.29.2.1.07.2.13c.26.17.52.33.79.49l.47.26.37.19.27.13.08,0,.23.11.44.2.21.09.28.11.36.13.31.11.36.11.19.06.24.07.53.14.38.09.29.07.67.12.12,0,.29,0H75l.61.07.37,0h2.59l.37,0,.61-.07h.08l.29,0,.12,0,.67-.12L81,74.7l.38-.09.53-.14.24-.07.19-.06.3-.1.36-.13.36-.13.28-.11.21-.09.43-.19.26-.12.09,0,.16-.08.09,0,.24-.13.26-.13.34-.19c.27-.16.53-.32.79-.49l.2-.13a17.43,17.43,0,0,0,2.08-1.65,17.17,17.17,0,0,0,2.74-3.29A16.94,16.94,0,0,0,77.29,41.25Z"/><path d="M60.54,34.57c-.55.3-1.08.62-1.59,1a24.5,24.5,0,0,0-4.6,3.84A24,24,0,0,1,56,46.53a24.44,24.44,0,0,1,8.46-9l-.49-.31-.31-.2-.52-.36-.64-.48c-.42-.32-.83-.66-1.23-1-.23-.2-.46-.4-.68-.62Z"/><path d="M94,34.57c-.22.21-.45.42-.68.62-.4.36-.81.69-1.23,1l-.64.48L91,37l-.31.2-.49.31a24.44,24.44,0,0,1,8.46,9,24,24,0,0,1,1.61-7.17,24.5,24.5,0,0,0-4.6-3.84c-.51-.33-1-.65-1.59-1Z"/><path d="M77.29,7a9.94,9.94,0,1,1-9.93,9.93A9.94,9.94,0,0,1,77.29,7m0-7A16.94,16.94,0,1,0,94.22,16.93,16.93,16.93,0,0,0,77.29,0Z"/></g></g></svg>