<svg xmlns="http://www.w3.org/2000/svg" viewBox="0 0 46.34 47.87"><defs><style>.cls-1{fill:none;stroke:#fff;stroke-miterlimit:10;stroke-width:5px;}.cls-2{fill:#fff;}</style></defs><title>settings</title><g id="Layer_2" data-name="Layer 2"><g id="Layer_3" data-name="Layer 3"><path class="cls-1" d="M43.41,31.75l-3.35,5.81a3.21,3.21,0,0,1-4.38,1.18l-2.38-1.38,0,0a2.32,2.32,0,0,0-2.27,0l-.05,0a2.32,2.32,0,0,0-1.21,2v2.78a3.21,3.21,0,0,1-3.21,3.21H19.82a3.21,3.21,0,0,1-3.21-3.21V39.38a2.32,2.32,0,0,0-1.21-2l0,0a2.32,2.32,0,0,0-2.28,0l0,0-2.38,1.38a3.21,3.21,0,0,1-4.38-1.18L2.93,31.75A3.21,3.21,0,0,1,4.1,27.36L6.51,26l.1-.06a2.31,2.31,0,0,0,1.06-1.84s0-.08,0-.12a2.32,2.32,0,0,0-1.15-2.06l0,0L4.1,20.5a3.21,3.21,0,0,1-1.17-4.38l3.35-5.81a3.21,3.21,0,0,1,4.38-1.18L13,10.51l0,0a2.32,2.32,0,0,0,2.27,0l.05,0a2.32,2.32,0,0,0,1.21-2V5.71A3.21,3.21,0,0,1,19.82,2.5h6.71a3.21,3.21,0,0,1,3.21,3.21V8.49a2.32,2.32,0,0,0,1.21,2l0,0a2.32,2.32,0,0,0,2.28,0l0,0,2.38-1.38a3.21,3.21,0,0,1,4.38,1.18l3.35,5.81a3.21,3.21,0,0,1-1.17,4.38l-2.41,1.39-.1.06a2.31,2.31,0,0,0-1.06,1.84s0,.08,0,.12A2.32,2.32,0,0,0,39.82,26l0,0,2.38,1.37A3.21,3.21,0,0,1,43.41,31.75Z"/><circle class="cls-2" cx="23.17" cy="23.93" r="7.34"/></g></g></svg>